Coordinates
version=1
nRows=12
nColumns=19
inDegrees=yes

Units are S.I. units (second, meters, Newtons, ...)
If the header above contains a line with 'inDegrees', this indicates whether rotational values are in degrees (yes) or radians (no).

endheader
time	pelvis_tilt	pelvis_list	pelvis_rotation	pelvis_tx	pelvis_ty	pelvis_tz	hip_flexion_r	hip_adduction_r	hip_rotation_r	knee_angle_r	knee_angle_r_beta	ankle_angle_r	hip_flexion_l	hip_adduction_l	hip_rotation_l	knee_angle_l	knee_angle_l_beta	ankle_angle_l
     15.18000000	     -4.32902377	     -7.09463983	     -4.82666417	      2.05014219	      0.97387944	      1.01313242	     32.48668571	      6.21355471	    -23.47128716	     25.67780708	      0.44816228	     -7.86632462	    -14.59378920	    -12.25563937	    -16.58473948	     60.09868535	      1.04891994	    -17.94343791
     15.18666667	     -3.94017457	     -7.87137602	     -4.32293069	      2.05030991	      0.97015005	      1.01400071	     31.14547289	      6.73328561	    -24.75288422	     26.27483379	      0.45858236	     -6.89451931	    -13.44504687	    -13.94778143	    -15.89315104	     64.68177974	      1.12891002	    -17.38168277
     15.19333333	     -3.46838334	     -8.42542083	     -4.05283613	      2.05013524	      0.96599613	      1.01494471	     29.87085348	      7.14414905	    -25.49161523	     27.40386724	      0.47828771	     -5.12949297	    -12.30732063	    -15.24719332	    -15.19571079	     69.16618808	      1.20717771	    -16.62550001
     15.20000000	     -3.28365207	     -9.01926464	     -3.59016991	      2.04961170	      0.96140559	      1.01548531	     28.89810357	      7.55043281	    -26.24373639	     28.62368165	      0.49957749	     -3.02574371	    -10.52425461	    -16.46360802	    -13.83002753	     73.71208696	      1.28651862	    -15.86843591
     15.20666667	     -3.15439417	     -9.47816300	     -3.25819478	      2.04860211	      0.95652992	      1.01588280	     28.10793391	      7.85594779	    -26.69332570	     30.17148617	      0.52659177	     -0.52228523	     -8.52512488	    -17.36865268	    -12.35621153	     78.17968864	      1.36449297	    -15.02352533
     15.21333333	     -3.05555802	     -9.91172614	     -2.94316682	      2.04714778	      0.95163093	      1.01604594	     27.40071788	      8.14848035	    -26.97444985	     31.83872369	      0.55569056	      2.21635307	     -6.30337073	    -18.06696671	    -10.65813451	     82.54935998	      1.44075813	    -14.15616972
     15.22000000	     -3.08613757	    -10.24016185	     -2.73816703	      2.04520225	      0.94665737	      1.01601763	     26.92041299	      8.35108270	    -27.01843112	     33.67522070	      0.58774348	      5.06395555	     -3.78855399	    -18.45770723	     -8.85238272	     86.78663414	      1.51471251	    -13.26523884
     15.22666667	     -3.16489409	    -10.52938330	     -2.59317375	      2.04284311	      0.94184352	      1.01576060	     26.53740263	      8.51291615	    -26.90902239	     35.57036170	      0.62081993	      7.88995695	     -1.09182739	    -18.63475155	     -6.97697073	     90.83863440	      1.58543326	    -12.35660011
     15.23333333	     -3.31299642	    -10.75826333	     -2.53070775	      2.04018332	      0.93727394	      1.01537665	     26.23533794	      8.62805043	    -26.62967753	     37.45176678	      0.65365664	     10.57706210	      1.77741838	    -18.59954199	     -5.09885838	     94.66003136	      1.65212922	    -11.50629379
     15.24000000	     -3.49214056	    -10.91414840	     -2.55863189	      2.03719927	      0.93306294	      1.01488386	     25.97053019	      8.68349648	    -26.17888476	     39.30519845	      0.68600513	     13.05828309	      4.75465478	    -18.36785756	     -3.29248166	     98.20850464	      1.71406176	    -10.65110993
     15.24666667	     -3.69336088	    -11.03246722	     -2.62814379	      2.03406698	      0.92928901	      1.01432206	     25.67944269	      8.70871834	    -25.62584900	     41.03461380	      0.71618912	     15.26731090	      7.81692749	    -18.02021881	     -1.55308824	    101.43366349	      1.77035140	     -9.85876121
     15.25333333	     -3.88128191	    -11.05589334	     -2.73459867	      2.03084430	      0.92605672	      1.01374797	     25.29936369	      8.66050210	    -24.94914997	     42.60387806	      0.74357795	     17.17308962	     10.90065650	    -17.50844939	      0.07571670	    104.28446936	      1.82010735	     -9.08806159
